<svg class="icon" height="512" viewBox="0 0 1024 1024" xmlns="http://www.w3.org/2000/svg"><path d="M445.379 814.981c8.99 6.646 32.593 42.087 51.61 77.701a19.313 19.313 0 0 0 34.887-1.72c14.448-34.939 33.812-70.021 42.312-76.872 166.522-31.744 287.17-177.602 287.17-347.566 0-195.133-158.75-353.884-353.884-353.884-195.123 0-353.874 158.75-353.874 353.874 0 83.978 29.942 165.396 84.326 229.274 53.31 62.627 126.915 104.898 207.463 119.193zm62.095-663.716c173.834 0 315.259 141.425 315.259 315.249 0 152.002-108.288 282.347-257.495 309.954-11.264 2.09-24.924 10.271-48.435 55.532a534.135 534.135 0 0 0-4.71 9.329 643.277 643.277 0 0 0-6.524-10.548c-26.306-41.605-39.71-51.497-51.712-53.534-151.593-26-261.632-156.672-261.632-310.723 0-173.834 141.425-315.259 315.249-315.259zm-105.196 189.83l-36.659-36.66a14.52 14.52 0 1 0-20.531 20.531l36.66 36.66-36.66 36.659a14.52 14.52 0 0 0 20.531 20.531l36.66-36.66 36.659 36.66a14.52 14.52 0 1 0 20.52-20.531l-36.659-36.66 36.66-36.659a14.52 14.52 0 0 0-20.521-20.53l-36.66 36.658zm218.358 0l-36.659-36.66a14.52 14.52 0 1 0-20.531 20.531l36.659 36.66-36.66 36.659a14.52 14.52 0 1 0 20.532 20.531l36.66-36.66 36.658 36.66a14.52 14.52 0 0 0 20.521-20.531l-36.659-36.66 36.66-36.659a14.52 14.52 0 0 0-20.522-20.53l-36.659 36.658zM501.76 665.6c45.24 0 81.92-41.267 81.92-92.16s-36.68-92.16-81.92-92.16-81.92 41.267-81.92 92.16 36.68 92.16 81.92 92.16z"/></svg>